<svg width="70" height="70" viewBox="0 0 70 70" fill="none" xmlns="http://www.w3.org/2000/svg">
    <rect x="0.5" y="0.5" width="69" height="69" rx="3.5" fill="#13315C"/>
    <rect x="0.5" y="0.5" width="69" height="69" rx="3.5" stroke="#CCCDCD"/>
    <path d="M52.307 52H17M17 31.7368L31.3452 19.7632C32.2843 18.9793 33.451 18.5523 34.6535 18.5523C35.856 18.5523 37.0227 18.9793 37.9618 19.7632L52.307 31.7368M40.8322 21.6053V17.9211C40.8322 17.6768 40.9252 17.4425 41.0908 17.2698C41.2563 17.097 41.4808 17 41.7149 17H46.1283C46.3624 17 46.5869 17.097 46.7524 17.2698C46.918 17.4425 47.011 17.6768 47.011 17.9211V27.1316M20.5307 52V28.9737M48.7763 52V28.9737"
          stroke="white" stroke-width="3" stroke-linecap="round"/>
    <path d="M39.9495 52.0001V42.7895C39.9495 40.1848 39.9495 38.8824 39.1728 38.0738C38.3995 37.2632 37.1514 37.2632 34.6535 37.2632C32.1573 37.2632 30.9092 37.2632 30.1342 38.0738C29.3574 38.8806 29.3574 40.183 29.3574 42.7895V52.0001M38.1842 28.9738C38.1842 29.9509 37.8122 30.888 37.1501 31.5789C36.4879 32.2698 35.5899 32.658 34.6535 32.658C33.7171 32.658 32.819 32.2698 32.1569 31.5789C31.4948 30.888 31.1228 29.9509 31.1228 28.9738C31.1228 27.9966 31.4948 27.0596 32.1569 26.3686C32.819 25.6777 33.7171 25.2896 34.6535 25.2896C35.5899 25.2896 36.4879 25.6777 37.1501 26.3686C37.8122 27.0596 38.1842 27.9966 38.1842 28.9738Z"
          stroke="white" stroke-width="3"/>
</svg>
