<svg width="70" height="70" viewBox="0 0 70 70" fill="none" xmlns="http://www.w3.org/2000/svg">
    <rect x="0.5" y="0.5" width="69" height="69" rx="3.5" fill="#13315C"/>
    <rect x="0.5" y="0.5" width="69" height="69" rx="3.5" stroke="#CCCDCD"/>
    <path d="M18 50.5877C19.1987 52.427 20.7492 52.427 21.9777 50.5877C25.9275 44.5467 29.69 54.933 32.4777 50.6577C36.7302 44.2457 39.7892 55.3635 42.9777 50.5877C47.1357 44.2265 49.7275 54.7615 53 51.272M20.751 43.25L18.1313 35.6305C17.657 34.2497 18.5302 32.75 19.8077 32.75H51.0015C56.416 32.75 49.4895 43.25 45.9947 43.25M46 32.75L41.1017 26.6267C40.446 25.8072 39.6143 25.1456 38.6683 24.6909C37.7223 24.2362 36.6861 24.0001 35.6365 24H28.5C27.5717 24 26.6815 24.3687 26.0251 25.0251C25.3687 25.6815 25 26.5717 25 27.5V32.75M32 24V18.75C32 18.2859 31.8156 17.8408 31.4874 17.5126C31.1592 17.1844 30.7141 17 30.25 17H28.5"
          stroke="white" stroke-width="3" stroke-linecap="round" stroke-linejoin="round"/>
</svg>
