<svg width="70" height="70" viewBox="0 0 70 70" fill="none" xmlns="http://www.w3.org/2000/svg">
    <rect x="0.5" y="0.5" width="69" height="69" rx="3.5" fill="#13315C"/>
    <rect x="0.5" y="0.5" width="69" height="69" rx="3.5" stroke="#CCCDCD"/>
    <path d="M45.9194 32.5625C45.7256 32.9394 45.4223 33.2493 45.048 33.4531C44.6736 33.6568 44.245 33.7452 43.8162 33.7072C43.3875 33.6691 42.9779 33.5062 42.6392 33.2392C42.3006 32.9721 42.0481 32.6128 41.9138 32.2068C41.7794 31.8007 41.7691 31.3662 41.8843 30.958C41.9995 30.5498 42.2349 30.1864 42.5608 29.9137C42.8867 29.641 43.2885 29.4713 43.7153 29.4259C44.1421 29.3806 44.5747 29.4618 44.9585 29.6591C45.4732 29.9237 45.8636 30.3782 46.0438 30.9227C46.224 31.4672 46.1792 32.0571 45.9194 32.5625ZM46.2548 48.6128C42.1147 50.6686 37.3378 51.0317 32.0605 49.6958C28.4278 48.7759 24.5294 47.0286 20.4 44.49C19.6888 46.5096 19.0294 48.683 18.4218 51.0103C18.3258 51.3768 18.0861 51.6885 17.7554 51.8768C17.4247 52.0652 17.03 52.1149 16.658 52.0149C16.5564 51.9881 16.4579 51.9503 16.3644 51.9021C16.0695 51.7503 15.8345 51.5041 15.6982 51.2043C15.5619 50.9046 15.5325 50.5692 15.6149 50.2539C16.3048 47.6155 17.0653 45.1541 17.8964 42.8695C15.853 41.483 13.7594 39.9106 11.6155 38.1525C11.4679 38.0314 11.3455 37.8831 11.2551 37.716C11.1648 37.5489 11.1083 37.3664 11.089 37.1787C11.0499 36.7998 11.1643 36.4232 11.4071 36.1319C11.6499 35.8406 12.0011 35.6583 12.3835 35.6252C12.766 35.5922 13.1483 35.711 13.4463 35.9555C15.335 37.5048 17.1733 38.9004 18.9612 40.1421C20.7917 35.7505 22.9174 32.137 25.3169 29.3429C28.8079 25.2809 32.9129 22.8839 37.5144 22.2178C40.6338 21.7656 45.6906 21.9319 51.9875 25.2416C55.3971 27.0367 58.2369 29.3239 58.5759 29.8496C58.7086 30.056 58.7865 30.2916 58.8025 30.5343C58.8406 31.1562 57.9074 34.6098 56.2112 37.9923C54.4816 41.444 51.3513 46.085 46.2548 48.6128ZM42.1839 47.082C39.0169 44.5868 36.656 41.2284 35.4002 37.4323C34.1444 33.6362 34.0503 29.5733 35.1297 25.7583C29.5136 27.7419 24.9269 33.1079 21.4243 41.7739C29.4757 46.853 36.4293 48.635 42.1855 47.0829L42.1839 47.082ZM55.7546 31.1057C53.8835 29.6146 51.8522 28.3338 49.6987 27.2874C45.7103 25.3653 41.9385 24.6007 38.453 24.9973C37.002 28.6871 36.8959 32.7793 38.1526 36.5774C39.4092 40.3755 41.9511 43.6446 45.3454 45.8282C48.4161 44.1944 51.0293 41.438 53.1201 37.6259C54.2438 35.5606 55.1275 33.3734 55.7546 31.1057Z"
          fill="white"/>
</svg>
