<svg width="97" height="96" viewBox="0 0 97 96" fill="none" xmlns="http://www.w3.org/2000/svg">
    <path d="M42.7997 59.1002C42.5997 58.7002 42.0997 57.6002 42.0997 57.1002C42.0997 56.4002 42.7997 55.8002 42.9997 56.0002C43.1997 56.2002 43.3997 57.6002 43.3997 58.0002L42.7997 59.1002ZM44.2997 61.4002C44.3997 61.0002 44.6997 60.1002 44.2997 59.4002C43.8997 58.7002 43.6997 58.4002 43.5997 58.3002C43.2997 58.4002 42.7997 58.9002 42.8997 59.4002C43.1997 59.9002 43.9997 60.9002 44.2997 61.4002ZM43.3997 53.8002C43.3997 53.3002 42.7997 53.7002 42.4997 54.0002C42.2997 54.3002 41.7997 55.1002 41.7997 55.8002V56.5002L42.6997 55.8002C42.9997 55.6002 43.3997 54.5002 43.3997 53.8002ZM40.9997 53.8002L41.8997 54.7002C41.9997 54.5002 42.2997 54.1002 42.2997 53.6002C42.2997 53.1002 41.8997 51.7002 41.5997 51.2002C40.9997 51.3002 40.8997 53.0002 40.9997 53.8002ZM49.2997 30.2002H47.0997L48.1997 31.1002L49.2997 30.2002ZM44.5997 59.4002L43.9997 55.9002L46.4997 57.7002L45.8997 58.3002L47.8997 60.2002V58.7002C47.4997 58.4002 47.0997 58.2002 46.7997 58.0002C46.3997 57.7002 46.2997 57.3002 46.3997 56.9002C46.3997 56.5002 46.5997 56.2002 46.7997 56.0002C47.0997 55.7002 47.4997 55.4002 47.8997 55.1002V54.1002H47.7997C47.6997 54.1002 47.5997 54.0002 47.4997 54.0002C47.2997 53.9002 46.8997 53.8002 46.5997 53.8002C45.8997 53.7002 44.9997 53.6002 44.4997 53.5002H44.3997V52.7002H47.7997V52.5002C47.7015 52.4125 47.6238 52.3044 47.572 52.1835C47.5201 52.0625 47.4954 51.9317 47.4997 51.8002C47.4997 51.3002 47.8997 50.8002 48.4997 50.8002C48.8997 50.8002 49.2997 51.1002 49.3997 51.4002C49.7997 51.4002 50.0997 51.7002 50.2997 52.0002C50.4997 52.3002 50.6997 52.6002 50.7997 52.8002H52.4997V53.5002L50.7997 53.8002C50.5997 53.8002 50.4997 54.0002 50.4997 54.1002C50.2997 54.5002 49.9997 55.0002 49.7997 55.1002C49.4997 55.4002 49.1997 55.5002 48.8997 55.6002V58.0002L50.0997 58.8002L50.6997 58.1002L50.1997 57.6002L52.5997 55.8002L52.1997 59.4002L51.5997 58.8002C51.1997 59.2002 50.6997 59.9002 50.0997 60.4002C49.7997 60.7002 49.4997 60.9002 49.1997 61.1002C48.8997 61.3002 48.5997 61.4002 48.3997 61.4002C48.1997 61.4002 47.8997 61.3002 47.5997 61.1002C47.2997 60.9002 46.9997 60.7002 46.6997 60.4002C46.0997 60.0002 45.4997 59.5002 45.0997 59.0002L44.5997 59.4002ZM48.5997 58.9002V60.3002L49.5997 59.5002L48.5997 58.9002ZM48.5997 54.0002V54.6002C49.0997 54.6002 49.4997 54.0002 49.5997 53.6002L48.5997 54.0002ZM47.8997 51.6002C47.8997 51.9002 48.0997 52.1002 48.3997 52.1002C48.6997 52.1002 48.8997 51.9002 48.8997 51.6002C48.8997 51.3002 48.6997 51.1002 48.3997 51.1002C48.0997 51.1002 47.8997 51.3002 47.8997 51.6002ZM47.7997 56.1002C47.5997 56.2002 46.9997 56.5002 46.9997 56.9002C46.9997 57.4002 47.3997 57.6002 47.5997 57.6002C47.6997 57.6002 47.6997 57.6002 47.7997 57.7002V56.1002ZM43.6997 50.7002C43.8997 50.5002 44.3997 49.9002 44.5997 49.6002C44.8997 49.1002 45.2997 48.3002 44.9997 48.0002C44.7997 47.8002 43.1997 49.6002 43.3997 49.3002C43.3997 49.9002 43.4997 50.9002 43.6997 50.7002ZM46.6997 30.6002V32.8002L47.9997 31.7002L46.6997 30.6002ZM48.1997 36.0002C49.0997 36.0002 49.7997 35.3002 49.7997 34.4002C49.7997 33.5002 49.0997 32.8002 48.1997 32.8002C47.2997 32.8002 46.5997 33.5002 46.5997 34.4002C46.6997 35.3002 47.3997 36.0002 48.1997 36.0002ZM42.5997 52.2002V53.8002C42.7997 53.7002 43.3997 53.2002 43.8997 52.7002C44.5997 52.0002 44.5997 50.7002 44.2997 50.5002C43.2997 50.8002 42.6997 51.8002 42.5997 52.2002ZM49.7997 32.8002V30.6002L48.4997 31.7002L49.7997 32.8002ZM41.8997 50.9002L42.2997 52.2002L42.6997 51.5002C42.8997 51.3002 43.0997 50.9002 43.0997 50.4002C43.0997 49.9002 42.9997 48.9002 42.8997 48.6002C42.4997 49.0002 41.9997 50.3002 41.8997 50.9002ZM42.3997 42.4002C41.6997 41.1002 40.5997 38.2002 41.9997 36.8002C43.3997 35.4002 45.6997 36.8002 46.6997 37.7002V36.4002H47.5997V39.0002H48.8997V36.4002H49.7997V37.7002C50.7997 36.8002 53.1997 35.5002 54.4997 36.8002C55.8997 38.2002 54.7997 41.1002 54.0997 42.4002L53.7997 43.0002L54.1997 44.1002C53.7997 44.2002 53.0997 44.6002 53.0997 45.0002C53.7997 45.9002 52.8997 46.9002 52.4997 47.2002L48.1997 45.3002L43.7997 47.4002C43.2997 47.1002 42.5997 45.9002 43.1997 45.1002C43.1997 44.8002 42.4997 44.4002 42.0997 44.2002L42.4997 43.1002L42.3997 42.4002ZM51.6997 41.1002L52.8997 41.3002C53.0997 41.0002 53.2997 40.3002 52.8997 40.1002C52.5997 39.9002 51.9997 40.7002 51.6997 41.1002ZM51.1997 40.8002L52.1997 40.1002C52.3997 39.5002 52.5997 38.2002 52.1997 38.4002C51.6997 38.6002 50.9997 39.1002 51.1997 40.8002ZM50.5997 43.0002C50.4997 43.3002 50.7997 43.6002 51.1997 43.7002C51.5997 43.8002 51.9997 43.7002 51.9997 43.4002C52.0997 43.1002 51.7997 42.8002 51.3997 42.7002C51.0997 42.7002 50.6997 42.8002 50.5997 43.0002ZM49.9997 40.6002H50.9997C50.7997 40.0002 50.1997 39.6002 49.9997 40.6002ZM47.1997 43.0002L48.1997 44.0002L49.1997 43.0002L48.1997 42.0002L47.1997 43.0002ZM46.0997 43.2002C45.9997 42.9002 45.5997 42.8002 45.2997 42.9002C44.8997 43.0002 44.5997 43.3002 44.6997 43.6002C44.7997 43.9002 45.1997 44.0002 45.4997 43.9002C45.8997 43.8002 46.0997 43.5002 46.0997 43.2002ZM45.4997 40.8002H46.4997C46.1997 39.8002 45.6997 40.2002 45.4997 40.8002ZM44.2997 40.3002L45.2997 41.0002C45.4997 39.3002 44.7997 38.8002 44.2997 38.6002C43.8997 38.4002 44.0997 39.7002 44.2997 40.3002ZM43.4997 41.5002L44.6997 41.3002C44.4997 40.9002 43.8997 40.1002 43.4997 40.3002C43.0997 40.5002 43.2997 41.2002 43.4997 41.5002ZM54.8997 57.1002C54.8997 56.4002 54.1997 55.8002 53.9997 56.0002C53.7997 56.2002 53.5997 57.6002 53.5997 58.0002L54.2997 59.1002C54.4997 58.7002 54.8997 57.7002 54.8997 57.1002ZM50.6997 62.8002C50.3997 63.0002 49.9997 63.6002 49.7997 63.6002C49.6997 63.6002 49.1997 63.7002 48.4997 63.8002C48.8997 63.9002 49.3997 64.0002 49.8997 64.1002H52.4997C53.0997 63.7002 54.1997 62.8002 53.7997 62.8002H51.1997L50.6997 63.0002V62.8002ZM47.1997 63.6002C46.9997 63.6002 46.5997 63.1002 46.2997 62.8002V62.9002L45.7997 62.7002H43.1997C42.7997 62.7002 43.8997 63.6002 44.4997 64.0002H46.9997C47.4997 63.9002 47.9997 63.8002 48.3997 63.7002C47.7997 63.7002 47.2997 63.6002 47.1997 63.6002ZM52.1997 62.3002C52.2997 61.9002 52.3997 61.0002 52.1997 61.0002C50.9997 61.0002 50.6997 62.5002 50.6997 62.9002C50.7997 62.8002 50.8997 62.8002 50.8997 62.8002H51.1997L52.1997 62.3002ZM46.2997 62.8002C46.1997 62.4002 45.8997 60.9002 44.7997 60.9002C44.5997 60.9002 44.6997 61.8002 44.7997 62.2002L45.7997 62.6002H46.0997C46.1997 62.7002 46.1997 62.8002 46.2997 62.8002ZM53.5997 60.9002C54.1997 60.7002 55.1997 60.4002 55.5997 60.3002C55.9997 60.1002 56.1997 59.0002 56.2997 58.5002C55.9997 58.5002 55.2997 58.6002 54.9997 58.9002C54.4997 59.3002 53.8997 60.6002 53.5997 60.9002ZM56.2997 53.8002L55.3997 54.9002V56.5002L56.0997 55.8002C56.1997 55.7002 56.3997 55.0002 56.4997 54.5002C56.6997 54.0002 56.5997 53.8002 56.4997 53.7002L56.2997 53.8002ZM52.1997 62.3002L53.7997 62.5002C54.4997 62.2002 55.0997 61.2002 55.0997 60.9002C55.0997 60.0002 52.8997 61.6002 52.1997 62.3002ZM84.9997 55.4002C84.7997 55.3002 83.1997 54.1002 81.1997 52.4002C77.4997 49.4002 72.0997 45.0002 70.4997 44.5002C68.4997 43.8002 59.3997 47.2002 55.0997 49.0002L55.1997 49.5002C55.3997 49.9002 55.4997 50.3002 55.4997 50.5002V50.6002L55.5997 51.1002C55.6997 50.9002 55.6997 50.8002 55.7997 50.7002C56.4997 50.9002 56.4997 52.6002 56.4997 53.4002L56.2997 53.6002L56.3997 53.8002L56.5997 53.6002L56.9997 53.1002C57.0997 53.2002 57.1997 53.5002 56.9997 54.0002C56.8997 54.2002 56.8997 54.4002 56.7997 54.6002C56.6997 54.8002 56.6997 54.9002 56.5997 55.1002L56.6997 55.6002C56.7997 55.5002 56.8997 55.5002 56.8997 55.6002V56.6002C57.3997 57.0002 58.4997 57.9002 58.6997 57.7002C58.8997 57.5002 58.4997 56.0002 58.2997 55.3002C59.1997 56.0002 60.9997 57.5002 61.1997 57.3002C61.2997 57.2002 60.8997 55.9002 60.5997 55.2002C61.3997 55.9002 63.4997 57.3002 63.6997 57.3002C63.8997 57.3002 63.2997 55.5002 62.9997 54.7002C63.6997 55.4002 65.9997 57.0002 66.1997 56.8002C66.3997 56.6002 65.3997 54.8002 64.8997 53.9002C65.9997 54.9002 68.3997 56.8002 68.8997 56.6002C69.3997 56.4002 68.1997 54.6002 67.5997 53.7002C68.8997 54.7002 71.6997 56.8002 72.0997 56.6002C72.4997 56.4002 71.3997 54.4002 70.7997 53.5002C72.0997 54.7002 74.6997 57.0002 74.9997 56.6002C75.2997 56.3002 74.2997 54.5002 73.6997 53.6002C74.8997 54.6002 77.6997 56.4002 77.8997 56.2002C78.0997 56.0002 77.3997 54.6002 76.9997 54.0002C78.3997 55.0002 81.2997 57.0002 81.6997 56.7002C81.9997 56.4002 79.6997 53.9002 78.8997 53.0002L78.5997 52.7002L79.6997 53.8002C82.9997 57.2002 85.5997 55.7002 84.9997 55.4002ZM55.0997 56.9002L54.6997 58.7002C55.0997 58.6002 56.0997 58.2002 56.2997 58.0002C56.4997 57.8002 56.4997 56.2002 56.4997 56.0002C56.4997 55.8002 55.5997 56.5002 55.0997 56.9002ZM44.7997 62.3002C44.0997 61.6002 41.8997 60.1002 41.8997 61.0002C41.8997 61.2002 42.4997 62.3002 43.1997 62.6002L44.7997 62.3002ZM51.9997 48.0002C51.7997 48.2002 52.0997 49.0002 52.3997 49.6002C52.5997 49.9002 53.0997 50.5002 53.2997 50.7002C53.4997 50.9002 53.4997 50.0002 53.4997 49.4002C53.7997 49.6002 52.1997 47.8002 51.9997 48.0002ZM55.3997 51.1002C55.0997 51.7002 54.6997 53.0002 54.6997 53.5002C54.6997 54.0002 54.9997 54.4002 55.0997 54.6002L55.9997 53.7002C56.0997 53.0002 56.0997 51.3002 55.3997 51.1002ZM53.9997 48.7002C53.8997 49.0002 53.7997 49.9002 53.7997 50.5002C53.7997 51.1002 53.9997 51.4002 54.1997 51.6002L54.5997 52.3002L54.9997 51.0002C54.9997 50.3002 54.5997 49.0002 53.9997 48.7002ZM55.0997 55.8002C55.0997 55.1002 54.6997 54.3002 54.3997 54.0002C54.0997 53.7002 53.4997 53.2002 53.4997 53.8002C53.4997 54.5002 53.8997 55.6002 54.1997 55.8002L55.0997 56.5002V55.8002ZM43.9997 64.7002L45.5997 65.8002L48.2997 64.7002L48.5997 64.6002L47.1997 64.1002L43.9997 64.7002ZM40.6997 53.8002V53.6002L40.4997 53.4002C40.3997 52.6002 40.4997 50.9002 41.1997 50.7002C41.2997 50.8002 41.2997 50.9002 41.3997 51.1002L41.4997 50.6002L41.3997 50.4002L41.6997 49.4002L41.7997 49.0002C37.5997 47.2002 28.4997 43.8002 26.4997 44.5002C24.8997 45.1002 19.5997 49.4002 15.7997 52.4002C13.7997 54.0002 12.1997 55.3002 11.9997 55.4002C11.2997 55.6002 13.9997 57.2002 17.5997 53.6002L18.6997 52.5002L18.3997 52.8002C17.5997 53.7002 15.2997 56.2002 15.5997 56.5002C15.9997 56.9002 18.8997 54.9002 20.2997 53.8002C19.8997 54.5002 19.1997 55.8002 19.3997 56.0002C19.5997 56.2002 22.4997 54.4002 23.5997 53.4002C22.9997 54.4002 21.9997 56.1002 22.2997 56.4002C22.6997 56.8002 25.2997 54.5002 26.4997 53.3002C25.8997 54.3002 24.7997 56.2002 25.1997 56.4002C25.5997 56.6002 28.2997 54.5002 29.6997 53.5002C28.9997 54.4002 27.7997 56.2002 28.3997 56.4002C28.8997 56.6002 31.2997 54.7002 32.3997 53.7002C31.8997 54.6002 30.8997 56.4002 31.0997 56.6002C31.2997 56.8002 33.5997 55.2002 34.2997 54.5002C33.9997 55.3002 33.3997 57.1002 33.5997 57.1002C33.7997 57.1002 35.8997 55.8002 36.6997 55.0002C36.3997 55.7002 35.8997 56.9002 36.0997 57.1002C36.2997 57.3002 38.0997 55.8002 38.9997 55.1002C38.7997 55.8002 38.3997 57.4002 38.5997 57.5002C38.7997 57.7002 39.8997 56.8002 40.3997 56.4002V55.4002C40.3997 55.3002 40.4997 55.4002 40.5997 55.5002L40.6997 55.0002C40.6997 54.9002 40.5997 54.7002 40.4997 54.5002C40.3997 54.3002 40.3997 54.1002 40.2997 53.9002C40.0997 53.4002 40.1997 53.1002 40.2997 53.0002L40.6997 53.5002L40.7997 53.4002L40.6997 53.8002ZM53.0997 52.7002C53.5997 53.2002 54.1997 53.7002 54.3997 53.8002V52.2002C54.2997 51.8002 53.6997 50.8002 52.5997 50.4002C52.4997 50.7002 52.4997 52.0002 53.0997 52.7002ZM53.9997 59.4002C54.1997 58.9002 53.5997 58.4002 53.2997 58.3002C53.1997 58.4002 52.9997 58.7002 52.5997 59.4002C52.1997 60.1002 52.4997 61.0002 52.5997 61.4002C53.0997 60.9002 53.7997 59.9002 53.9997 59.4002ZM48.7997 64.7002L51.4997 65.8002L53.0997 64.7002L49.9997 64.1002L48.4997 64.6002L48.7997 64.7002ZM42.0997 58.9002C41.6997 58.5002 41.0997 58.5002 40.7997 58.5002C40.8997 59.0002 41.0997 60.1002 41.4997 60.3002C41.7997 60.5002 42.8997 60.8002 43.4997 60.9002C43.1997 60.6002 42.4997 59.3002 42.0997 58.9002ZM42.2997 58.7002L41.8997 56.9002C41.4997 56.5002 40.5997 55.8002 40.5997 56.0002C40.5997 56.2002 40.5997 57.8002 40.7997 58.0002C40.9997 58.2002 41.8997 58.6002 42.2997 58.7002ZM40.5997 54.5002C40.7997 55.0002 40.9997 55.7002 40.9997 55.8002L41.6997 56.5002V54.9002L40.7997 53.8002V53.9002L40.4997 53.6002C40.3997 53.7002 40.3997 54.0002 40.5997 54.5002Z"
          fill="#13315C"/>
</svg>
