<svg width="97" height="96" viewBox="0 0 97 96" fill="none" xmlns="http://www.w3.org/2000/svg">
    <path fill-rule="evenodd" clip-rule="evenodd"
          d="M43.9996 48.7001C43.4996 48.3001 42.5996 47.0001 43.3996 46.0001C43.3996 45.6001 42.5996 45.2001 42.0996 45.0001L42.5996 43.8001L42.2996 43.1001C41.4996 41.6001 40.1996 38.2001 41.7996 36.7001C43.3996 35.1001 46.1996 36.7001 47.2996 37.7001V36.2001H48.2996V39.2001H49.7996V36.2001H50.7996V37.7001C51.9996 36.7001 54.6996 35.1001 56.2996 36.7001C57.8996 38.3001 56.5996 41.7001 55.7996 43.1001L55.4996 43.8001L55.9996 45.0001C55.5996 45.2001 54.6996 45.6001 54.6996 46.0001C55.4996 47.0001 54.3996 48.2001 53.8996 48.5001L48.8996 46.3001L43.9996 48.7001ZM54.2996 38.2001C54.7996 37.9001 54.4996 39.6001 54.2996 40.4001L52.9996 41.3001C52.6996 39.2001 53.6996 38.6001 54.2996 38.2001ZM43.9996 38.5001C43.4996 38.2001 43.7996 39.9001 43.9996 40.7001L45.2996 41.6001C45.5996 39.5001 44.5996 38.9001 43.9996 38.5001ZM42.9996 40.7001C42.4996 41.0001 42.7996 41.9001 42.9996 42.3001L44.5996 42.0001C44.2996 41.5001 43.4996 40.5001 42.9996 40.7001ZM45.5996 41.4001C45.7996 40.7001 46.5996 40.1001 46.8996 41.4001H45.5996ZM49.0996 42.9001L47.7996 44.2001L49.0996 45.5001L50.3996 44.2001L49.0996 42.9001ZM45.5996 45.3001C46.0996 45.2001 46.4996 44.8001 46.3996 44.4001C46.2996 44.1001 45.7996 43.9001 45.2996 44.0001C44.7996 44.1001 44.3996 44.5001 44.4996 44.9001C44.5996 45.3001 45.0996 45.5001 45.5996 45.3001ZM52.1996 44.3001C52.0996 44.6001 52.4996 45.0001 52.9996 45.2001C53.4996 45.3001 53.9996 45.2001 54.0996 44.8001C54.1996 44.5001 53.7996 44.1001 53.2996 43.9001C52.7996 43.8001 52.2996 43.9001 52.1996 44.3001ZM55.2996 42.0001C55.4996 41.6001 55.7996 40.7001 55.2996 40.4001C54.7996 40.1001 53.9996 41.1001 53.6996 41.7001L55.2996 42.0001ZM52.6996 41.1001C52.4996 40.4001 51.6996 39.8001 51.3996 41.1001H52.6996ZM50.6996 33.9001C50.6996 34.8001 49.9996 35.5001 49.0996 35.5001C48.1996 35.5001 47.4996 34.8001 47.4996 33.9001C47.4996 33.0001 48.1996 32.3001 49.0996 32.3001C49.9996 32.3001 50.6996 33.0001 50.6996 33.9001ZM48.5996 31.1001L47.4996 30.0001V32.3001L48.5996 31.1001ZM49.4996 31.1001L50.5996 30.0001V32.3001L49.4996 31.1001ZM49.0996 30.7001L47.9996 29.6001H50.2996L49.0996 30.7001ZM14.7996 50.4001C14.5996 50.2001 14.4996 49.7001 14.9996 48.8001C15.2996 48.4001 15.4996 48.0001 15.6996 47.7001C15.9996 47.2001 16.1996 46.8001 16.3996 46.5001C16.5996 46.0001 16.8996 45.6001 16.8996 45.1001C16.8996 44.6001 17.9996 45.6001 17.7996 46.9001C17.6996 47.8001 17.0996 49.2001 16.7996 50.2001C16.5996 50.7001 16.4996 51.1001 16.4996 51.2001C16.4996 51.4001 16.4996 52.1001 17.1996 52.1001C17.8996 52.1001 19.2996 52.1001 19.2996 51.6001C19.2996 51.4001 19.4996 51.5001 19.6996 51.7001C19.8996 51.9001 20.1996 52.1001 20.3996 52.1001C20.6996 52.1001 20.4996 51.7001 20.2996 51.4001C20.1996 51.2001 20.0996 51.1001 20.0996 51.0001C20.0996 50.8001 20.8996 50.9001 21.1996 51.0001C20.4996 50.5001 19.0996 49.5001 19.0996 48.9001C19.0996 48.7001 20.2996 49.0001 20.8996 49.1001C20.2996 48.7001 18.9996 47.6001 18.7996 46.1001L21.9996 48.2001C20.8996 47.4001 18.6996 45.1001 19.2996 42.9001L22.4996 47.0001C22.2996 46.2001 21.8996 44.4001 22.2996 44.0001L24.3996 47.0001C23.9996 46.2001 23.1996 44.5001 22.9996 43.6001C22.7996 42.7001 23.0996 41.7001 23.1996 41.3001L26.3996 46.6001C26.5996 46.3001 26.9996 45.7001 27.4996 45.7001C27.7996 45.7001 28.1996 45.5001 28.4996 45.3001C28.9996 45.0001 29.4996 44.8001 29.7996 45.0001L29.9996 45.2001L30.8996 44.3001L31.0996 45.9001L32.4996 44.5001L32.2996 45.9001L33.1996 45.4001C32.6996 45.8001 31.8996 46.6001 32.2996 46.8001C32.3996 46.9001 32.4996 46.9001 32.5996 46.9001C32.8996 47.0001 33.0996 47.1001 33.1996 47.5001C33.3996 47.9001 33.9996 48.3001 34.2996 48.4001C34.5996 48.3001 35.1996 48.2001 35.1996 48.4001C35.1996 48.6001 35.3996 49.1001 35.3996 49.3001C35.2996 49.5001 35.0996 50.0001 34.6996 50.2001C34.1996 50.4001 33.2996 50.7001 33.2996 50.2001C33.2996 49.8001 32.1996 49.9001 31.6996 50.0001C31.5996 49.9001 31.4996 49.9001 31.6996 50.2001C31.7996 50.3001 31.9996 50.6001 32.1996 50.8001C32.8996 51.6001 33.9996 52.8001 33.9996 53.8001C33.9996 54.0001 34.2996 54.2001 34.4996 54.3001L35.5996 52.2001C35.4996 52.0001 35.4996 51.5001 35.7996 51.3001C36.1996 51.1001 36.9996 50.6001 37.3996 50.4001L38.3996 51.3001C37.8996 51.5001 36.8996 52.1001 36.6996 52.4001C36.4996 52.8001 36.1996 54.7001 35.9996 55.6001C35.9996 55.8001 35.8996 56.1001 35.4996 56.3001C35.0996 56.5001 34.9996 56.8001 34.9996 57.0001L36.7996 56.3001L38.2996 57.2001L39.7996 60.4001C39.8996 60.6001 39.9996 61.2001 39.7996 61.8001C39.5996 62.5001 39.4996 62.5001 38.8996 62.0001C38.3996 61.6001 38.2996 61.1001 38.2996 60.9001L38.6996 60.4001L38.4996 60.2001L38.2996 60.0001C38.1996 59.5001 37.8996 58.5001 37.1996 58.3001C36.4996 58.0001 34.2996 59.5001 33.2996 60.3001C32.9996 60.4001 32.2996 60.3001 31.8996 59.7001C31.8996 59.8001 26.5996 60.4001 24.3996 58.6001C22.5996 57.2001 21.7996 57.0001 21.6996 57.1001C21.6996 57.8001 21.5996 59.2001 21.1996 59.7001C20.7996 60.2001 19.7996 61.1001 19.3996 61.4001C19.2996 61.3001 18.9996 61.2001 18.2996 61.2001C17.5996 61.2001 16.8996 61.7001 16.6996 61.9001C16.7996 61.7001 16.6996 61.4001 15.7996 61.2001C14.8996 61.0001 14.4996 61.1001 14.3996 61.2001C14.4996 61.0001 14.4996 60.4001 14.1996 59.8001C13.7996 59.3001 13.2996 59.1001 13.0996 59.1001C13.4996 58.7001 13.8996 57.7001 12.5996 56.6001C13.0996 56.1001 13.8996 55.1001 13.4996 54.6001C13.5996 54.7001 13.8996 54.9001 14.3996 54.4001C14.8996 54.0001 15.3996 53.4001 15.4996 53.2001C15.4996 52.9001 15.2996 52.4001 14.5996 52.7001C14.2996 52.8001 13.9996 53.1001 13.6996 53.4001C12.9996 54.0001 12.2996 54.7001 11.1996 54.5001C9.89961 54.3001 9.29961 54.0001 9.09961 53.8001C9.39961 53.8001 10.0996 53.7001 10.8996 53.1001C11.2996 52.8001 11.7996 52.5001 12.1996 52.1001C12.8996 51.5001 13.6996 50.8001 14.0996 50.8001C14.5996 50.9001 14.7996 50.6001 14.7996 50.4001ZM15.4996 57.0001C15.4996 55.7001 16.5996 54.4001 17.3996 54.4001C18.1996 54.4001 19.2996 55.9001 19.2996 57.0001C19.2996 58.0001 17.8996 59.7001 17.3996 59.7001C16.8996 59.7001 15.4996 58.3001 15.4996 57.0001ZM31.7996 47.7001C31.4996 47.7001 30.8996 48.0001 30.8996 48.2001H31.2996C31.6996 48.2001 32.1996 48.2001 32.4996 48.1001V48.0001C32.3996 48.0001 32.1996 47.7001 31.7996 47.7001ZM82.6996 50.4001C82.8996 50.2001 82.9996 49.7001 82.4996 48.8001C82.1996 48.4001 81.9996 48.0001 81.7996 47.7001C81.4996 47.2001 81.2996 46.8001 81.0996 46.5001C80.8996 46.0001 80.5996 45.6001 80.5996 45.1001C80.5996 44.6001 79.4996 45.6001 79.7996 47.0001C79.8996 47.9001 80.4996 49.3001 80.7996 50.3001C80.9996 50.8001 81.0996 51.2001 81.0996 51.3001C81.0996 51.5001 81.0996 52.2001 80.3996 52.2001C79.6996 52.2001 78.2996 52.2001 78.2996 51.7001C78.2996 51.5001 78.0996 51.6001 77.8996 51.8001C77.6996 52.0001 77.3996 52.2001 77.1996 52.2001C76.8996 52.2001 77.0996 51.8001 77.2996 51.5001C77.3996 51.3001 77.4996 51.2001 77.4996 51.1001C77.4996 50.9001 76.6996 51.0001 76.3996 51.1001C77.0996 50.6001 78.4996 49.6001 78.4996 49.0001C78.4996 48.8001 77.2996 49.1001 76.6996 49.2001C77.2996 48.8001 78.5996 47.7001 78.7996 46.2001L75.5996 48.3001C76.6996 47.5001 78.8996 45.2001 78.2996 43.0001L74.9996 47.0001C75.1996 46.2001 75.5996 44.4001 75.1996 44.0001L73.0996 47.0001C73.4996 46.2001 74.2996 44.5001 74.4996 43.6001C74.6996 42.7001 74.3996 41.7001 74.2996 41.3001L71.0996 46.6001C70.8996 46.3001 70.4996 45.7001 69.9996 45.7001C69.6996 45.7001 69.2996 45.5001 68.9996 45.3001C68.4996 45.0001 67.9996 44.8001 67.6996 45.0001L67.4996 45.2001L66.4996 44.2001L66.2996 45.8001L64.8996 44.4001L65.0996 45.8001L64.1996 45.3001C64.6996 45.7001 65.4996 46.5001 65.0996 46.7001C64.9996 46.8001 64.8996 46.8001 64.7996 46.8001C64.4996 46.9001 64.2996 47.0001 64.1996 47.4001C63.9996 47.8001 63.3996 48.2001 63.0996 48.3001C62.7996 48.2001 62.1996 48.1001 62.1996 48.3001C62.1996 48.5001 61.9996 49.0001 61.9996 49.2001C62.0996 49.4001 62.2996 49.9001 62.6996 50.1001C63.1996 50.3001 64.0996 50.6001 64.0996 50.1001C64.0996 49.7001 65.1996 49.8001 65.6996 49.9001C65.7996 49.8001 65.8996 49.8001 65.6996 50.1001C65.5996 50.2001 65.3996 50.5001 65.1996 50.7001C64.4996 51.5001 63.3996 52.7001 63.3996 53.7001C63.3996 53.9001 63.0996 54.1001 62.8996 54.2001L61.7996 52.1001C61.8996 51.9001 61.8996 51.4001 61.5996 51.2001C61.1996 51.0001 60.3996 50.5001 59.9996 50.3001L58.9996 51.2001C59.4996 51.4001 60.4996 52.0001 60.6996 52.3001C60.8996 52.7001 61.1996 54.6001 61.3996 55.5001C61.3996 55.7001 61.4996 56.0001 61.8996 56.2001C62.2996 56.4001 62.3996 56.7001 62.3996 56.9001L60.5996 56.2001L59.0996 57.1001L57.5996 60.3001C57.4996 60.5001 57.3996 61.1001 57.5996 61.7001C57.7996 62.4001 57.8996 62.4001 58.4996 61.9001C58.9996 61.5001 59.0996 61.0001 59.0996 60.8001L58.4996 60.5001L58.6996 60.3001L59.1996 60.1001C59.2996 59.6001 59.5996 58.6001 60.2996 58.4001C60.9996 58.1001 63.1996 59.6001 64.1996 60.4001C64.4996 60.5001 65.1996 60.4001 65.5996 59.8001C65.5996 59.9001 70.8996 60.5001 73.0996 58.7001C74.8996 57.3001 75.6996 57.1001 75.7996 57.2001C75.7996 57.9001 75.8996 59.3001 76.2996 59.8001C76.6996 60.3001 77.6996 61.2001 78.0996 61.5001C78.1996 61.4001 78.4996 61.3001 79.1996 61.3001C79.8996 61.3001 80.5996 61.8001 80.7996 62.0001C80.6996 61.8001 80.7996 61.5001 81.6996 61.3001C82.5996 61.1001 82.9996 61.2001 83.0996 61.3001C82.9996 61.1001 82.9996 60.5001 83.2996 59.9001C83.6996 59.4001 84.1996 59.2001 84.3996 59.2001C83.9996 58.8001 83.5996 57.8001 84.8996 56.7001C84.3996 56.2001 83.5996 55.2001 83.9996 54.7001C83.8996 54.8001 83.5996 55.0001 83.0996 54.5001C82.5996 54.1001 82.0996 53.5001 81.9996 53.3001C81.9996 53.0001 82.1996 52.5001 82.8996 52.8001C83.1996 52.9001 83.4996 53.2001 83.7996 53.5001C84.4996 54.1001 85.1996 54.8001 86.2996 54.6001C87.5996 54.4001 88.1996 54.1001 88.3996 53.9001C88.0996 53.9001 87.3996 53.8001 86.5996 53.2001C86.1996 52.9001 85.6996 52.6001 85.2996 52.2001C84.5996 51.6001 83.7996 50.9001 83.3996 50.9001C82.8996 50.9001 82.6996 50.6001 82.6996 50.4001ZM81.9996 57.0001C81.9996 55.7001 80.8996 54.4001 80.0996 54.4001C79.2996 54.4001 78.1996 55.9001 78.1996 57.0001C78.1996 58.0001 79.5996 59.7001 80.0996 59.7001C80.5996 59.7001 81.9996 58.3001 81.9996 57.0001ZM65.7996 47.7001C66.0996 47.7001 66.6996 48.0001 66.6996 48.2001H66.2996C65.8996 48.2001 65.3996 48.2001 65.0996 48.1001V48.0001C65.0996 48.0001 65.2996 47.7001 65.7996 47.7001ZM48.0996 59.7001C48.1996 59.7001 48.2996 59.8001 48.2996 59.8001V57.5001C47.9996 57.7001 47.1996 58.1001 47.1996 58.6001C47.0996 59.4001 47.6996 59.6001 48.0996 59.7001ZM49.3996 63.4001L50.8996 62.3001L49.3996 61.5001V63.4001ZM49.3996 55.4001V54.7001L50.7996 54.0001C50.5996 54.5001 50.1996 55.4001 49.3996 55.4001ZM49.6996 51.0001C49.6996 51.4001 49.3996 51.7001 48.9996 51.7001C48.5996 51.7001 48.2996 51.4001 48.2996 51.0001C48.2996 50.6001 48.5996 50.3001 48.9996 50.3001C49.3996 50.4001 49.6996 50.7001 49.6996 51.0001ZM40.9996 51.8001C40.1996 55.4001 40.3996 63.4001 48.0996 66.9001V67.6001H49.8996V66.9001C52.5996 65.8001 57.8996 61.2001 57.1996 52.0001C56.0996 51.8001 52.9996 51.0001 48.9996 48.8001C47.4996 49.8001 43.8996 51.8001 40.9996 51.8001ZM49.0996 49.7001C48.2996 49.7001 47.6996 50.3001 47.6996 51.1001C47.6996 51.5001 47.8996 51.9001 48.1996 52.1001V52.4001H43.3996V53.5001H43.5996C44.3996 53.6001 45.5996 53.7001 46.5996 53.9001C47.0996 54.0001 47.5996 54.1001 47.8996 54.2001C48.0996 54.3001 48.1996 54.3001 48.2996 54.4001C48.3996 54.4001 48.3996 54.5001 48.3996 54.5001V56.0001C47.7996 56.4001 47.2996 56.9001 46.8996 57.3001C46.5996 57.6001 46.3996 58.1001 46.2996 58.6001C46.1996 59.1001 46.3996 59.7001 46.8996 60.2001C47.2996 60.5001 47.7996 60.9001 48.3996 61.3001V63.5001L45.4996 60.7001L46.3996 59.8001L42.7996 57.3001L43.5996 62.3001L44.3996 61.8001C44.8996 62.4001 45.7996 63.2001 46.5996 64.0001C46.9996 64.4001 47.4996 64.7001 47.8996 65.0001C48.2996 65.3001 48.6996 65.4001 48.9996 65.4001C49.2996 65.4001 49.7996 65.2001 50.1996 64.9001C50.5996 64.6001 51.0996 64.3001 51.4996 63.8001C52.2996 63.1001 53.0996 62.2001 53.5996 61.5001L54.3996 62.3001L54.9996 57.2001L51.5996 59.7001L52.2996 60.4001L51.4996 61.5001L49.6996 60.3001V56.9001C50.0996 56.7001 50.5996 56.5001 50.9996 56.1001C51.2996 55.8001 51.6996 55.2001 51.9996 54.6001L52.2996 54.0001H54.6996V52.6001H52.2996C52.0996 52.3001 51.8996 51.8001 51.4996 51.4001C51.1996 51.0001 50.6996 50.6001 50.1996 50.6001C50.1996 50.1001 49.6996 49.7001 49.0996 49.7001Z"
          fill="#13315C"/>
</svg>
