<svg width="97" height="96" viewBox="0 0 97 96" fill="none" xmlns="http://www.w3.org/2000/svg">
    <path d="M40.4002 55.3C40.4002 57.2891 41.1904 59.1968 42.5969 60.6033C44.0034 62.0098 45.9111 62.8 47.9002 62.8C49.8893 62.8 51.797 62.0098 53.2035 60.6033C54.61 59.1968 55.4002 57.2891 55.4002 55.3C55.4002 51.1 52.0002 47.8 47.9002 47.8C43.7002 47.8 40.4002 51.1 40.4002 55.3ZM46.9002 59.4L46.4002 59.9V59.1L46.6002 58.3L46.8002 58.6V59.4H46.9002ZM49.8002 58.2L49.5002 57.9L49.7002 57.6L49.9002 57.9L49.8002 58.2ZM53.0002 59.7L52.8002 60H52.5002L52.0002 59.5H51.3002L51.1002 59L51.6002 58.7L51.8002 58.2H52.0002V58.5H52.5002V58.2H52.7002V58.7L52.9002 59.2L53.1002 59.5L53.0002 59.7ZM50.8002 57.4H51.3002L51.5002 57.7L51.0002 58L50.8002 57.4ZM53.2002 59.2V58.7C53.3002 58.6 53.5002 58.4 53.7002 58.4L53.2002 59.2ZM53.7002 54.1L53.5002 55.1H53.0002V54.6L53.7002 54.1ZM51.7002 50.9C52.7002 51.9 53.1002 52.5 53.2002 52.7L52.5002 52.9L52.7002 53.4L52.9002 53.7V54.5L52.2002 55.5V56H51.7002L51.9002 56.5L51.5002 56.9L52.0002 57.2H52.5002L52.7002 57.5L52.5002 57.7H52.0002L51.8002 57.4L50.8002 56.9L50.6002 55.9C50.4002 55.8 50.1002 55.7 49.9002 55.9L49.5002 56.4V57.7H49.3002L48.1002 56.9V56.4H47.6002L47.4002 56.1L47.6002 55.8L47.1002 55.5L46.9002 55L46.7002 55.3L46.9002 55.8L47.1002 56.1H46.4002L45.9002 55.3H45.7002L46.2002 56.3L46.7002 56.6V57.1L46.2002 57.9V60.9H45.7002L44.2002 59.4L43.7002 57.9C43.3002 57.8 42.4002 57.6 42.2002 57.4C42.0002 57.2 41.8002 56.5 41.7002 56.1L41.9002 55.6V54.8L42.4002 54.3H43.1002L44.1002 54.6L44.3002 55.4H44.8002V55.1H45.5002V54.6H45.3002V54.3L45.8002 54V53.7H45.3002L45.1002 54L44.9002 54.5L44.7002 54.2V53.7L44.5002 53.4V54.2H44.3002L44.1002 53.7H43.4002V54H42.9002L42.4002 53.7V53.4L42.6002 52.9L43.6002 53.2V52.2C43.4002 52 43.2002 51.7 43.4002 51.7H43.9002L43.7002 51.4L44.4002 50.9V51.4L44.2002 51.7H44.7002L45.4002 51.4H46.1002L46.3002 50.9L45.3002 51.2L44.8002 50.7V50.4L47.2002 49.9V50.4L47.9002 50.1L48.9002 49.3C49.4002 49.6 50.8002 49.9 51.7002 50.9ZM37.2002 54.8C37.2002 55 37.3002 55.6 37.7002 56.3C38.1002 57.3 37.5002 58.1 37.4002 58.4C37.1002 58.3 36.4002 57.7 36.3002 56.3C36.2002 55 36.9002 54.8 37.2002 54.8ZM43.3002 63.2C43.4002 63.4 43.7002 63.9 44.3002 64.5C45.1002 65.3 44.8002 66.3 44.8002 66.5C44.5002 66.5 43.6002 66.2 43.0002 65C42.4002 63.8 42.9002 63.3 43.3002 63.2ZM43.7002 41.5C43.7002 41.5 43.8002 42.9 42.2002 43.8L41.4002 44.4L41.2002 43.9C41.2002 42.3 43.7002 41.5 43.7002 41.5ZM45.8002 44.1C45.8002 44.1 43.9002 45.8 42.4002 45.4L41.5002 45.3L42.2002 44.6C44.3002 42.7 45.8002 44.1 45.8002 44.1ZM40.4002 62C39.8002 60.8 40.3002 60.3 40.7002 60.2C40.8002 60.4 41.1002 60.9 41.7002 61.5C42.5002 62.3 42.2002 63.3 42.2002 63.5C41.9002 63.5 41.1002 63.2 40.4002 62ZM39.0002 44.7C39.0002 44.7 38.9002 47.3 37.6002 48.1L36.9002 48.7L36.8002 47.7C37.0002 44.9 39.0002 44.7 39.0002 44.7ZM41.8002 45.8C41.8002 45.8 40.7002 48.3 39.1002 48.6L38.2002 48.9L38.5002 47.9C39.7002 45.1 41.8002 45.8 41.8002 45.8ZM42.8002 47.3L41.8002 47.2L42.0002 46.7C43.0002 45.5 45.4002 46.4 45.4002 46.4C45.4002 46.4 44.6002 47.5 42.8002 47.3ZM35.6002 58.7C35.6002 58.7 38.0002 59.7 38.3002 61.2L38.6002 62.1L37.6002 61.8C35.0002 60.6 35.6002 58.7 35.6002 58.7ZM38.4002 59.4C38.3002 58 38.9002 57.8 39.3002 57.8C39.3002 58 39.4002 58.6 39.8002 59.3C40.2002 60.3 39.6002 61.1 39.5002 61.4C39.2002 61.4 38.5002 60.8 38.4002 59.4ZM40.3002 49.9L39.2002 50.2V49.6C39.8002 48 42.6002 48.1 42.6002 48.1C42.6002 48.1 42.2002 49.5 40.3002 49.9ZM37.4002 54C37.2002 53.7 37.1002 52.8 37.8002 51.7C38.5002 50.6 39.2002 50.8 39.5002 51C39.4002 51.2 39.1002 51.7 38.9002 52.5C38.6002 53.6 37.6002 53.9 37.4002 54ZM60.6002 51.9V52.9L59.8002 52.4C58.4002 51.7 58.0002 49.2 58.0002 49.2C58.0002 49.2 60.1002 49.1 60.6002 51.9ZM54.5002 47.2L53.5002 47.3C51.7002 47.6 50.9002 46.4 50.9002 46.4C50.9002 46.4 53.3002 45.5 54.3002 46.7L54.5002 47.2ZM58.5002 51.7C59.2002 52.8 59.1002 53.7 58.9002 54C58.7002 53.9 57.7002 53.6 57.4002 52.5C57.2002 51.7 56.9002 51.1 56.8002 51C57.1002 50.8 57.8002 50.6 58.5002 51.7ZM58.6002 56.4C59.0002 55.6 59.1002 55 59.1002 54.9C59.4002 54.9 60.1002 55.1 60.0002 56.5C59.9002 57.9 59.2002 58.4 58.9002 58.6C58.7002 58.2 58.1002 57.4 58.6002 56.4ZM55.9002 62C55.3002 63.2 54.5002 63.5 54.1002 63.5C54.1002 63.2 53.8002 62.2 54.6002 61.5C55.2002 60.9 55.5002 60.4 55.6002 60.2C55.9002 60.3 56.5002 60.8 55.9002 62ZM58.8002 61.8L57.8002 62.1L58.1002 61.2C58.4002 59.7 60.8002 58.7 60.8002 58.7C60.8002 58.7 61.3002 60.6 58.8002 61.8ZM61.5002 59.4C61.3002 57.8 63.2002 56.1 63.2002 56.1C63.2002 56.1 64.4002 57.7 62.3002 59.7L61.5002 60.3V59.4ZM57.1002 50.1L56.0002 49.8C54.0002 49.4 53.6002 48 53.6002 48C53.6002 48 56.4002 47.9 57.0002 49.5L57.1002 50.1ZM54.1002 44.5L54.8002 45.2L53.9002 45.3C52.4002 45.7 50.5002 44 50.5002 44C50.5002 44 52.0002 42.7 54.1002 44.5ZM55.1002 43.8L54.9002 44.3L54.1002 43.7C52.5002 42.8 52.6002 41.4 52.6002 41.4C52.6002 41.4 55.1002 42.3 55.1002 43.8ZM57.9002 47.9L58.2002 48.9L57.3002 48.6C55.6002 48.3 54.6002 45.8 54.6002 45.8C54.6002 45.8 56.6002 45.1 57.9002 47.9ZM38.2002 49.2C38.2002 49.2 37.9002 51.7 36.4002 52.4L35.6002 52.9V51.9C36.2002 49.1 38.2002 49.2 38.2002 49.2ZM59.5002 47.7L59.4002 48.7L58.7002 48.1C57.4002 47.2 57.3002 44.7 57.3002 44.7C57.3002 44.7 59.3002 44.9 59.5002 47.7ZM61.0002 57.6L60.7002 56.7C60.0002 55.3 61.4002 53.1 61.4002 53.1C61.4002 53.1 63.0002 54.3 61.7002 56.8L61.0002 57.6ZM56.8002 61.5C56.7002 61.3 56.1002 60.4 56.5002 59.4C56.9002 58.6 57.0002 58 57.0002 57.9C57.3002 57.9 58.0002 58.1 57.9002 59.5C57.8002 60.8 57.1002 61.4 56.8002 61.5ZM43.8002 30.9L43.5002 31.6C43.8002 31.7 44.3002 31.9 44.3002 32.1C43.8002 32.6 44.4002 33.3 44.7002 33.5L48.0002 32.2L51.2002 33.4C51.5002 33.3 52.2002 32.6 51.7002 32.1C51.7002 31.9 52.2002 31.7 52.5002 31.6L52.2002 30.9L52.4002 30.5C52.9002 29.7 53.7002 27.9 52.7002 27C51.7002 26.1 49.9002 27 49.2002 27.5L48.6002 28.3H47.6002L47.0002 27.5C46.3002 27 44.5002 26.1 43.5002 27C42.5002 27.9 43.3002 29.7 43.8002 30.5V30.9ZM51.5002 29.9L50.6002 29.7C50.8002 29.4 51.2002 29 51.5002 29.1C51.8002 29.2 51.6002 29.7 51.5002 29.9ZM50.9002 28C51.2002 27.9 51.0002 28.7 50.9002 29.1L50.2002 29.6C50.0002 28.5 50.6002 28.2 50.9002 28ZM50.4002 30.8C50.7002 30.9 50.9002 31 50.8002 31.2C50.7002 31.4 50.5002 31.4 50.2002 31.4C49.9002 31.3 49.7002 31.2 49.8002 31C49.8002 30.8 50.1002 30.7 50.4002 30.8ZM50.0002 29.4H49.3002C49.4002 28.8 49.9002 29.1 50.0002 29.4ZM48.0002 30.3L48.7002 30.9L48.0002 31.5L47.3002 30.9L48.0002 30.3ZM45.9002 31.5C45.6002 31.6 45.3002 31.5 45.3002 31.3C45.2002 31.1 45.4002 31 45.7002 30.9C46.0002 30.8 46.3002 30.9 46.3002 31.1C46.4002 31.2 46.2002 31.4 45.9002 31.5ZM46.7002 29.5H46.0002C46.0002 29.2 46.5002 28.9 46.7002 29.5ZM45.0002 28.2C45.4002 28.4 45.9002 28.7 45.7002 29.7L45.0002 29.2C44.9002 28.8 44.7002 28.1 45.0002 28.2ZM44.4002 29.2C44.7002 29.1 45.1002 29.6 45.3002 29.8L44.4002 30C44.3002 29.8 44.1002 29.4 44.4002 29.2ZM47.2002 27C47.2002 26.6 47.5002 26.3 47.9002 26.3C48.3002 26.3 48.6002 26.6 48.6002 27C48.6002 27.4 48.3002 27.7 47.9002 27.7C47.5002 27.7 47.2002 27.4 47.2002 27ZM48.5002 26.3L47.9002 25.8L48.5002 25.3V26.3ZM44.3002 23.7L43.6002 22.5V20.6C43.7002 20.4 44.0002 19.9 44.3002 19.9C44.9002 19.9 43.6002 18.4 45.1002 18.4H45.4002V18H45.8002V18.3H46.1002C47.4002 18.3 46.3002 19.4 46.8002 19.8C47.0002 20 47.4002 20.1 47.5002 20.5V22H48.9002C48.9002 21.9 49.1002 21.8 49.4002 21.8H50.9002C51.0002 21.9 51.3002 22.1 51.4002 22.1C51.5002 22.1 52.5002 22 53.0002 22C53.2002 21.9 53.4002 21.8 53.2002 21.6C52.9002 21.3 52.4002 21.2 52.2002 21.3C51.9583 21.4565 51.6854 21.5588 51.4002 21.6C51.3002 21.6 49.1002 21.5 49.7002 20.6C49.9002 20.3 50.7002 20.3 51.1002 20.3C51.2002 20.3 51.3002 20.4 51.2002 20.6C51.0002 20.7 50.7002 20.8 50.5002 20.8C50.4002 20.7 50.2002 20.6 50.1002 20.7C50.0002 20.8 49.7002 21 50.0002 21.1C50.3002 21.3 50.7002 21.3 51.0002 21.3C51.3002 21.3 51.3002 20.9 51.8002 20.9C52.3002 20.9 53.7002 21.1 53.7002 21.7C53.7002 22.3 53.2002 22.4 52.8002 22.4H51.8002C52.0002 22.6 52.4002 23.2 52.5002 23.4C52.6002 23.7 52.7002 24 52.8002 24.1L53.2002 24.8V25.8L52.9002 26.4H52.2002L51.9002 26L52.3002 25.9H52.5002V25.1L51.1002 24.2V25L51.3002 25.2V25.6L50.5002 26.3L50.3002 26.5H49.6002V26C49.6002 26.1 50.2002 25.5 50.6002 25.3V25.1L49.6002 24.1L49.4002 23.8H49.1002L46.5002 24.8L45.7002 25.2L45.0002 26L44.8002 26.4H44.1002L43.9002 26.1L44.4002 25.6V24.2L44.3002 23.7ZM47.4002 25.1H48.4002L47.9002 25.5L47.4002 25.1ZM34.9002 53.1C34.9002 53.1 36.2002 55.3 35.6002 56.7L35.3002 57.6L34.7002 56.8C33.3002 54.3 34.9002 53.1 34.9002 53.1ZM47.2002 25.3L47.8002 25.8L47.2002 26.3V25.3ZM66.8002 70.2V71.7C66.8002 71.9 66.6002 72.4 66.5002 72.6L65.6002 72.7V71.7C64.7002 71.7 64.4002 71.1 64.4002 70.8L64.5002 68.5C64.2002 68.6 63.2002 69.1 61.0002 70.4C58.9002 71.7 58.1002 72.6 58.0002 73L59.7002 74.5C59.7002 74.7 59.2002 75.3 56.9002 76.5C54.7002 77.6 50.5002 78 48.4002 78.1V74.7H48.3002C52.2002 74.7 54.4002 73.8 55.0002 73.4V71.8C55.2002 71.4 56.3002 70.1 58.8002 67.9C61.3002 65.8 63.6002 65.5 64.4002 65.6C64.9002 66.2 65.9002 67.7 66.4002 68.5C67.0002 69.5 65.0002 69.9 65.8002 69.9C66.5002 69.9 66.8002 70.1 66.8002 70.2ZM48.3002 74.6V78C46.3002 77.9 42.2002 77.6 40.0002 76.4C37.7002 75.2 37.2002 74.6 37.2002 74.4L38.9002 72.9C38.8002 72.6 38.1002 71.6 35.9002 70.3C34.7917 69.5649 33.6205 68.9291 32.4002 68.4L32.5002 70.7C32.5002 71 32.3002 71.6 31.3002 71.6V72.6H30.5002C30.4002 72.4 30.2002 71.9 30.2002 71.7V70.2C30.3002 70.1 30.6002 69.9 31.2002 69.9C32.0002 69.9 30.0002 69.5 30.6002 68.5C31.1002 67.7 32.1002 66.3 32.6002 65.6C33.5002 65.5 35.8002 65.7 38.2002 67.9C40.6002 70.1 41.7002 71.4 42.0002 71.8V73.4C42.6002 73.8 44.5002 74.7 48.5002 74.7L48.3002 74.6ZM37.3002 41.9C38.2002 41.9 39.0002 41.2 39.3002 40.9H41.8002L42.6002 39L39.8002 40.3L38.7002 38.7C38.6002 38.4 38.4002 37.9 37.9002 38.4L36.5002 40.7C36.4002 41.1 36.5002 41.9 37.3002 41.9ZM37.3002 40.3C37.7002 40.3 38.0002 40.6 38.0002 41C38.0002 41.4 37.7002 41.7 37.3002 41.7C36.9002 41.7 36.6002 41.4 36.6002 41C36.6002 40.6 36.9002 40.3 37.3002 40.3ZM33.8002 53L33.7002 52C33.9002 49.2 35.9002 49 35.9002 49C35.9002 49 35.8002 51.5 34.5002 52.4L33.8002 53ZM33.9002 59.7C31.9002 57.8 33.0002 56.1 33.0002 56.1C33.0002 56.1 34.9002 57.8 34.7002 59.4V60.3L33.9002 59.7ZM40.0002 39.5L38.8002 37C39.9002 36 43.2002 34.2 48.3002 34.2C53.4002 34.2 56.6002 36 57.6002 37L56.4002 39.6C55.3002 38.9 52.3002 37.4 48.3002 37.4C44.3002 37.4 41.1002 38.8 40.0002 39.5ZM49.3002 65C49.3002 64.4 48.8002 63.8 48.1002 63.8C47.4002 63.8 46.9002 64.3 46.9002 65C46.9002 65.4 47.1002 65.7 47.4002 65.9H48.7002C49.1002 65.7 49.3002 65.4 49.3002 65ZM47.4002 65C47.4002 64.6 47.7002 64.3 48.1002 64.3C48.5002 64.3 48.8002 64.6 48.8002 65C48.8002 65.4 48.5002 65.7 48.1002 65.7C47.7002 65.7 47.4002 65.4 47.4002 65ZM40.0002 67C40.6002 66.7 42.0002 66 43.0002 66.2C44.3002 66.5 44.0002 67.2 44.3002 67.2C42.5002 68.1 40.7002 67.5 40.0002 67ZM35.6002 63.4C36.3002 63.4 37.8002 63.6 38.6002 64.3C39.6002 65.2 39.0002 65.7 39.2002 65.8C37.2002 65.6 36.0002 64.1 35.6002 63.4ZM53.9002 39L54.7002 40.9H57.2002C57.5002 41.2 58.3002 41.9 59.2002 41.9C60.1002 41.9 60.1002 41.1 60.0002 40.7L58.5002 38.5C58.0002 38 57.8002 38.5 57.7002 38.8L56.6002 40.4L53.9002 39ZM59.1002 40.3C59.5002 40.3 59.8002 40.6 59.8002 41C59.8002 41.4 59.5002 41.7 59.1002 41.7C58.7002 41.7 58.4002 41.4 58.4002 41C58.4002 40.6 58.7002 40.3 59.1002 40.3ZM33.2002 60.5C33.2002 60.5 35.7002 60.6 36.6002 61.9L37.2002 62.6L36.2002 62.7C33.4002 62.5 33.2002 60.5 33.2002 60.5ZM45.1002 69.8L44.2002 70C44.4002 69.4 45.0002 68.1 45.1002 68.1C45.3002 68.1 46.0002 69.1 46.3002 69.6L45.5002 69.8C45.8002 70.2 46.7002 71.1 47.6002 71.1V66.6H45.2002V66H47.3002C47.5002 66.1 47.7002 66.2 48.0002 66.2C48.3002 66.2 48.5002 66.1 48.7002 66H50.7002V66.6H48.3002V71.1C48.9002 71.1 50.2002 70.8 50.4002 69.8H49.9002C50.1002 69.4 50.4002 68.5 50.6002 68.3C50.8002 68.1 51.3002 69.4 51.5002 70L50.8002 69.8C50.8002 70.6 50.2002 72.2 48.0002 72.2C45.9002 72.2 45.2002 70.6 45.1002 69.8ZM41.2002 65.4C38.5002 65 38.5002 63 38.5002 63C38.5002 63 41.0002 63.3 41.8002 64.6L42.3002 65.4H41.2002ZM60.4002 49.1C60.4002 49.1 62.4002 49.2 62.6002 52.1L62.5002 53L61.8002 52.4C60.5002 51.6 60.4002 49.1 60.4002 49.1ZM60.1002 62.7L59.1002 62.6L59.7002 61.9C60.6002 60.6 63.1002 60.5 63.1002 60.5C63.1002 60.5 62.9002 62.5 60.1002 62.7ZM57.1002 65.8C57.3002 65.7 56.7002 65.1 57.7002 64.3C58.5002 63.6 60.0002 63.4 60.7002 63.4C60.3002 64.1 59.1002 65.6 57.1002 65.8ZM52.0002 67.3C52.3002 67.3 52.0002 66.5 53.3002 66.3C54.3002 66.1 55.8002 66.7 56.3002 67.1C55.7002 67.5 53.8002 68.1 52.0002 67.3ZM51.5002 66.5C51.5002 66.2 51.2002 65.2 52.0002 64.5C52.6002 63.9 52.9002 63.4 53.0002 63.2C53.3002 63.3 53.9002 63.8 53.3002 65C52.7002 66.2 51.8002 66.5 51.5002 66.5ZM55.1002 65.4H54.1002L54.6002 64.6C55.4002 63.2 57.9002 63 57.9002 63C57.9002 63 57.8002 65 55.1002 65.4Z"
          fill="#13315C"/>
</svg>
