<svg width="97" height="96" viewBox="0 0 97 96" fill="none" xmlns="http://www.w3.org/2000/svg">
    <path fill-rule="evenodd" clip-rule="evenodd"
          d="M43.6001 46.9C43.1001 46.6 42.2001 45.5 43.0001 44.8C43.0001 44.5 42.2001 44.2 41.8001 44L42.3001 43L42.1001 42.4C41.3001 41.2 40.0001 38.6 41.6001 37.4C43.2001 36.2 45.9001 37.4 47.0001 38.2V37H48.0001V39.3H49.5001V37H50.5001V38.2C51.6001 37.4 54.3001 36.2 55.9001 37.4C57.5001 38.6 56.2001 41.3 55.4001 42.4L55.2001 43L55.7001 44C55.3001 44.1 54.5001 44.5 54.5001 44.8C55.3001 45.6 54.3001 46.5 53.8001 46.7L48.6001 45L43.6001 46.9ZM53.2001 38.9C53.7001 38.7 53.4001 39.9 53.2001 40.4L52.1001 41.1C51.7001 39.6 52.6001 39.1 53.2001 38.9ZM44.1001 39.1C43.6001 38.9 43.9001 40.1 44.1001 40.6L45.2001 41.3C45.5001 39.8 44.6001 39.3 44.1001 39.1ZM43.2001 40.6C42.7001 40.8 43.0001 41.4 43.2001 41.7L44.6001 41.5C44.3001 41.2 43.7001 40.5 43.2001 40.6ZM45.5001 41.1C45.7001 40.6 46.4001 40.2 46.6001 41.1H45.5001ZM48.6001 42.2L47.5001 43.1L48.6001 44L49.7001 43.1L48.6001 42.2ZM45.5001 43.9C46.0001 43.8 46.3001 43.5 46.2001 43.3C46.1001 43.1 45.7001 43 45.2001 43C44.7001 43.1 44.4001 43.4 44.5001 43.6C44.6001 43.8 45.0001 44 45.5001 43.9ZM51.3001 43.1C51.2001 43.3 51.5001 43.6 52.0001 43.7C52.5001 43.8 52.9001 43.7 53.0001 43.4C53.1001 43.2 52.8001 42.9 52.3001 42.8C51.8001 42.8 51.4001 42.9 51.3001 43.1ZM54.0001 41.5C54.2001 41.2 54.5001 40.6 54.0001 40.4C53.5001 40.2 52.9001 40.9 52.6001 41.3L54.0001 41.5ZM51.7001 40.9C51.5001 40.4 50.8001 40 50.6001 40.9H51.7001ZM50.4001 35.3C50.4001 36.1 49.6001 36.7 48.6001 36.7C47.6001 36.7 46.8001 36.1 46.8001 35.3C46.8001 34.5 47.6001 33.9 48.6001 33.9C49.6001 33.9 50.4001 34.5 50.4001 35.3ZM48.4001 32.9L46.9001 31.9V33.9L48.4001 32.9ZM48.9001 32.9L50.4001 31.9V33.9L48.9001 32.9ZM48.6001 32.3L47.3001 31.5H49.8001L48.6001 32.3ZM47.6001 48.2C47.6001 47.7 48.0001 47.2 48.6001 47.2C49.0001 47.2 49.4001 47.5 49.5001 47.9C49.9001 47.9 50.2001 48.2 50.4001 48.5L51.0001 49.4H52.7001V50.4H51.0001C50.9001 50.5 50.8001 50.7 50.7001 50.8C50.5001 51.2 50.2001 51.7 50.0001 51.9C49.7001 52.2 49.4001 52.3 49.1001 52.5V54.9L50.4001 55.8L51.0001 55L50.5001 54.4L53.0001 52.6L52.6001 56.3L52.0001 55.7C51.6001 56.2 51.0001 56.8 50.4001 57.3C50.1001 57.6 49.8001 57.9 49.5001 58.1C49.2001 58.3 48.9001 58.4 48.7001 58.4C48.5001 58.4 48.2001 58.3 47.9001 58.1C47.6001 57.9 47.3001 57.7 47.0001 57.4C46.4001 56.9 45.8001 56.3 45.4001 55.8L44.8001 56.2L44.2001 52.6L46.8001 54.4L46.1001 55.1L48.2001 57.1V55.5C47.8001 55.2 47.4001 55 47.1001 54.7C46.7001 54.4 46.6001 54 46.7001 53.6C46.7001 53.2 46.9001 52.9 47.1001 52.7C47.4001 52.4 47.8001 52.1 48.2001 51.8V50.8H48.1001C48.0001 50.8 47.9001 50.7 47.8001 50.7C47.6001 50.6 47.2001 50.5 46.8001 50.5C46.1001 50.4 45.2001 50.3 44.6001 50.2H44.4001V49.4H47.9001V49C47.7001 48.8 47.6001 48.5 47.6001 48.2ZM48.0001 54.5C48.0001 54.5 47.9001 54.5 47.8001 54.4C47.5001 54.3 47.1001 54.2 47.1001 53.6C47.1001 53.2 47.7001 52.9 47.9001 52.8V54.5H48.0001ZM49.9001 56.3L48.9001 57.1V55.7L49.9001 56.3ZM48.9001 50.8V51.3C49.4001 51.3 49.8001 50.6 49.9001 50.3L48.9001 50.8ZM48.6001 48.7C48.9001 48.7 49.1001 48.5 49.1001 48.2C49.1001 47.9 48.9001 47.7 48.6001 47.7C48.3001 47.7 48.1001 47.9 48.1001 48.2C48.1001 48.5 48.3001 48.7 48.6001 48.7ZM49.3001 61.8C49.2001 61.7 49.2001 61.4 49.6001 61.3C50.1001 61.1 52.4001 60.3 52.9001 59.9C53.0001 59.8 53.1001 59.8 53.3001 59.8C53.7001 59.7 54.0001 59.6 53.5001 57.9C52.8001 55.7 53.7001 52.4 58.0001 51.4C61.5001 50.6 67.1001 50.4 69.4001 50.4C70.7001 49.5 73.7001 48.1 75.5001 49.4C75.6001 49.5 75.6001 49.8 75.2001 50.1C74.8001 50.4 73.9001 51.2 73.5001 51.6C73.4001 51.8 73.4001 52.1 73.7001 52.3C74.0001 52.5 77.0001 54 78.7001 56.7C80.1001 58.9 80.8001 60.2 81.0001 60.6C81.3001 61 82.1001 61.9 83.1001 62.3C83.5001 62.5 83.9001 62.6 84.3001 62.7C85.2001 63 86.0001 63.2 85.7001 63.7C85.4001 64.4 84.0001 64.6 82.4001 64.6C81.3001 64.6 80.5001 64.4 79.9001 64.2C79.7001 64.1 79.5001 64.1 79.3001 64.1C79.0001 64.1 78.7001 64.2 78.4001 64.4C78.1001 64.5 77.8001 64.7 77.6001 64.7C77.1001 64.7 72.2001 64.5 72.6001 63.7C72.8001 63.2 73.9001 62.8 74.7001 62.6C75.2001 62.5 75.6001 62.3 75.7001 62.2C75.8001 62.1 76.0001 62 76.3001 61.8C76.9001 61.5 77.6001 61.1 77.5001 60.6C77.3001 59.9 75.1001 55 70.6001 55C69.3259 54.9744 68.0609 55.2197 66.8886 55.7196C65.7163 56.2195 64.6636 56.9627 63.8001 57.9C64.2001 58.8 64.9001 60.6 64.7001 61.1C64.4001 61.8 61.9001 61.3 60.9001 60.2C59.7001 61 56.7001 62.6 54.3001 62.6H50.0001C49.9001 62.5 49.7001 62.4 49.8001 62.3C49.6001 62 49.4001 61.8 49.3001 61.8ZM55.0001 58.2C55.1001 57.9 55.3001 57.3 55.9001 57.2C56.5001 57.1 56.9001 57 57.1001 57C57.0001 57.3 56.8001 58.1 56.2001 58.2C55.6001 58.3 55.2001 58.2 55.0001 58.2ZM47.7001 61.8C47.8001 61.7 47.8001 61.4 47.4001 61.3C46.9001 61.1 44.6001 60.3 44.1001 59.9C44.0001 59.8 43.9001 59.8 43.7001 59.8C43.3001 59.7 43.0001 59.6 43.5001 57.9C44.2001 55.7 43.3001 52.4 39.0001 51.4C35.5001 50.6 29.9001 50.4 27.6001 50.4C26.3001 49.5 23.3001 48.1 21.5001 49.4C21.5001 49.4 21.5001 49.7 21.9001 50C22.3001 50.3 23.2001 51.1 23.6001 51.5C23.7001 51.7 23.7001 52 23.4001 52.2C23.1001 52.4 20.1001 53.9 18.4001 56.6C17.0001 58.8 16.3001 60.1 16.1001 60.5C15.8001 60.9 15.0001 61.8 14.0001 62.2C13.6001 62.4 13.2001 62.5 12.8001 62.6C11.9001 62.9 11.1001 63.1 11.4001 63.6C11.7001 64.3 13.1001 64.5 14.7001 64.5C15.8001 64.5 16.6001 64.3 17.2001 64.1C17.4001 64 17.6001 64 17.8001 64C18.1001 64 18.4001 64.1 18.7001 64.3C19.0001 64.4 19.3001 64.6 19.5001 64.6C20.0001 64.6 24.9001 64.4 24.5001 63.6C24.3001 63.1 23.2001 62.7 22.4001 62.5C21.9001 62.4 21.5001 62.2 21.4001 62.1C21.3001 62 21.1001 61.9 20.8001 61.7C20.2001 61.4 19.5001 61 19.6001 60.5C19.8001 59.8 22.0001 54.9 26.5001 54.9C27.7743 54.8744 29.0393 55.1197 30.2116 55.6196C31.3839 56.1195 32.4366 56.8627 33.3001 57.8C32.9001 58.7 32.2001 60.5 32.4001 61C32.7001 61.7 35.2001 61.2 36.2001 60.1C37.4001 60.9 40.4001 62.5 42.8001 62.5H47.1001C47.2001 62.4 47.4001 62.3 47.3001 62.2C47.4001 62 47.6001 61.8 47.7001 61.8ZM42.0001 58.2C41.9001 57.9 41.7001 57.3 41.1001 57.2C40.5001 57.1 40.1001 57 39.9001 57C40.0001 57.3 40.2001 58.1 40.8001 58.2C41.4001 58.3 41.8001 58.2 42.0001 58.2Z"
          fill="#13315C"/>
</svg>
